<svg width="151" height="139" viewBox="0 0 151 139" fill="none" xmlns="http://www.w3.org/2000/svg">
<path d="M115.444 34.5821L77.5489 0.751789C76.9785 0.266493 76.2541 0 75.5052 0C74.7563 0 74.0319 0.266493 73.4615 0.751789L62.0672 10.9162V7.493C62.0642 6.94963 61.8463 6.42952 61.4612 6.04619C61.0761 5.66285 60.555 5.44743 60.0116 5.44693H56.2377C55.6935 5.44668 55.1714 5.66203 54.7856 6.04585C54.3998 6.42968 54.1818 6.95071 54.1792 7.49491V17.9565L35.5563 34.5849C34.4334 35.5884 34.7488 36.4102 36.2568 36.4102H39.8339C40.559 36.4105 41.2545 36.6977 41.7686 37.2091C42.2827 37.7204 42.5735 38.4145 42.5775 39.1396V73.7249C42.5818 74.4497 42.8728 75.1434 43.3869 75.6544C43.901 76.1655 44.5964 76.4523 45.3212 76.4523H105.682C106.406 76.4515 107.101 76.1641 107.615 75.6527C108.128 75.1414 108.419 74.4476 108.422 73.7229V39.1358C108.426 38.4107 108.717 37.7166 109.231 37.2052C109.745 36.6938 110.441 36.4067 111.166 36.4064H114.743C116.251 36.4064 116.566 35.5865 115.444 34.5821ZM91.1269 59.1769C89.4013 61.7637 87.0503 63.8727 84.292 65.3084C83.9585 65.4871 83.6163 65.6514 83.2723 65.8005C80.8877 66.8673 78.3043 67.417 75.692 67.4137C65.3126 67.4137 57.179 59.5706 57.179 49.5515C57.179 49.3546 57.1825 49.1578 57.1895 48.9609C57.2226 47.8572 57.358 46.7589 57.5938 45.6801C58.4995 41.555 60.788 37.8634 64.0797 35.2174C67.3714 32.5714 71.4687 31.13 75.692 31.1321C77.5855 31.13 79.4682 31.4155 81.2759 31.9789C83.6259 32.7124 85.8051 33.9093 87.6848 35.499C89.5645 37.0887 91.1066 39.0388 92.2201 41.2344C92.4009 41.5921 92.5073 41.9828 92.5328 42.3828C92.5582 42.7828 92.5023 43.1838 92.3682 43.5615C92.2342 43.9392 92.025 44.2858 91.7531 44.5804C91.4813 44.8749 91.1525 45.1112 90.7866 45.2749L90.046 45.6104L89.8883 45.6801L86.8656 47.0419L82.6139 48.9618L72.8661 53.3579L70.7494 54.3135C70.3647 54.4888 69.9469 54.5797 69.5242 54.5802H69.5137C68.9428 54.5781 68.3844 54.4127 67.9045 54.1034C67.4246 53.7942 67.0432 53.3541 66.8054 52.8351C66.643 52.4813 66.5529 52.0987 66.5402 51.7096C66.5276 51.3205 66.5927 50.9329 66.7318 50.5693C66.8412 50.2771 66.9974 50.0047 67.1943 49.7627C67.461 49.4232 67.8025 49.1498 68.192 48.9638C68.2225 48.9441 68.2544 48.9268 68.2876 48.9122L70.261 48.0215L75.4522 45.682L84.5433 41.5832L85.1377 41.3166C83.5844 39.5646 81.5747 38.2788 79.333 37.6028C77.0913 36.9267 74.7058 36.8871 72.4428 37.4882C70.4291 38.028 68.5808 39.0592 67.0638 40.4893C65.5469 41.9193 64.4086 43.7036 63.7511 45.682C63.4024 46.7432 63.1998 47.8469 63.149 48.9628C63.1385 49.1597 63.1347 49.3565 63.1347 49.5534C63.1347 49.7503 63.1347 49.9481 63.149 50.145C63.2507 52.1527 63.8666 54.1006 64.9376 55.8018C66.0086 57.503 67.4988 58.9005 69.2652 59.8602C71.2322 60.9392 73.4419 61.4984 75.6853 61.4848C77.6733 61.4887 79.6337 61.0201 81.4051 60.1177C83.1764 59.2154 84.708 57.905 85.8736 56.2946C85.9692 56.1637 86.0647 56.028 86.1517 55.8932C86.5925 55.238 87.274 54.783 88.0482 54.6272C88.8224 54.4713 89.6268 54.6272 90.2868 55.0609C90.3644 55.1114 90.4391 55.1662 90.5104 55.2252C90.8721 55.5139 91.16 55.8844 91.3505 56.3061C91.5586 56.7643 91.6466 57.2679 91.6061 57.7695C91.5657 58.2711 91.3981 58.7542 91.1192 59.173" fill="white"/>
<g clip-path="url(#clip0_2568_20597)">
<path d="M9.862 135.69C8.5748 135.755 7.28835 135.549 6.08548 135.086C4.88262 134.624 3.79001 133.914 2.878 133.003C1.06542 130.985 0.0566291 128.372 0.043 125.659C0.0143333 125.293 0 124.82 0 124.24C0 123.661 0.014 123.189 0.042 122.823C0.111062 120.984 0.589336 119.184 1.442 117.553C2.20921 116.096 3.37344 114.885 4.8 114.061C6.33372 113.216 8.06423 112.793 9.815 112.834C11.7067 112.768 13.5785 113.238 15.215 114.189C16.684 115.11 17.8418 116.452 18.538 118.04C19.3356 119.882 19.7255 121.875 19.681 123.881V124.601C19.6892 124.734 19.6689 124.867 19.6215 124.991C19.5741 125.115 19.5006 125.228 19.406 125.321C19.2146 125.494 18.9635 125.585 18.706 125.575H4.063V125.956C4.10998 127.074 4.36855 128.173 4.825 129.194C5.25172 130.167 5.93129 131.007 6.793 131.628C7.67516 132.256 8.73642 132.583 9.819 132.559C10.6892 132.588 11.5553 132.429 12.359 132.094C12.9583 131.834 13.5149 131.484 14.01 131.057C14.3295 130.791 14.6138 130.485 14.856 130.147C15.0118 129.906 15.2132 129.698 15.449 129.534C15.6644 129.451 15.8953 129.414 16.126 129.428H18.2C18.4397 129.424 18.673 129.506 18.856 129.661C18.9477 129.742 19.0172 129.844 19.058 129.959C19.0988 130.074 19.1095 130.197 19.089 130.317C19.0019 130.883 18.7685 131.415 18.412 131.862C17.9081 132.551 17.301 133.158 16.612 133.662C15.7397 134.304 14.7673 134.798 13.734 135.122C12.4821 135.52 11.1743 135.713 9.861 135.693M4.061 122.657H15.661V122.53C15.6821 121.364 15.443 120.207 14.961 119.144C14.5231 118.189 13.8269 117.376 12.951 116.796C12.017 116.201 10.9262 115.899 9.819 115.928C8.71841 115.896 7.63404 116.199 6.709 116.796C5.84482 117.378 5.16259 118.192 4.741 119.144C4.2735 120.211 4.04254 121.366 4.064 122.53L4.061 122.657Z" fill="white"/>
<path d="M26.283 135.268C26.1503 135.277 26.0173 135.257 25.893 135.209C25.7688 135.162 25.6562 135.088 25.563 134.993C25.3904 134.802 25.2993 134.551 25.309 134.293V106.655C25.295 106.385 25.386 106.119 25.563 105.914C25.6564 105.82 25.769 105.746 25.8932 105.699C26.0174 105.651 26.1503 105.631 26.283 105.639H37.883C39.6691 105.57 41.4461 105.925 43.068 106.676C44.3227 107.286 45.3578 108.269 46.031 109.49C46.6759 110.716 47.0032 112.084 46.983 113.469C47.0096 114.493 46.8148 115.511 46.412 116.453C46.0782 117.219 45.5952 117.911 44.991 118.488C44.4953 118.958 43.9407 119.361 43.341 119.688C44.5272 120.301 45.5389 121.203 46.282 122.312C47.1664 123.606 47.6183 125.146 47.573 126.712C47.588 128.204 47.2239 129.675 46.515 130.987C45.7871 132.308 44.6914 133.389 43.361 134.098C41.7747 134.919 40.0043 135.32 38.219 135.262L26.283 135.268ZM29.457 118.168H37.241C38.7166 118.274 40.1791 117.83 41.346 116.92C41.815 116.49 42.1835 115.962 42.4255 115.373C42.6674 114.784 42.7769 114.149 42.746 113.513C42.784 112.892 42.6773 112.271 42.4343 111.699C42.1914 111.126 41.8188 110.617 41.346 110.213C40.1502 109.371 38.7003 108.966 37.241 109.068H29.457V118.168ZM29.457 131.839H37.668C38.4303 131.887 39.1944 131.781 39.9144 131.526C40.6345 131.272 41.2956 130.874 41.858 130.357C42.8085 129.371 43.3396 128.055 43.3396 126.686C43.3396 125.316 42.8085 124 41.858 123.014C41.2922 122.504 40.63 122.112 39.9105 121.861C39.1909 121.61 38.4285 121.506 37.668 121.554H29.457V131.839Z" fill="white"/>
<path d="M54.007 135.269C53.8779 135.274 53.7493 135.252 53.6291 135.204C53.5089 135.157 53.3997 135.085 53.3084 134.994C53.217 134.903 53.1454 134.793 53.0981 134.673C53.0507 134.553 53.0286 134.424 53.033 134.295V114.275C53.0275 114.009 53.1266 113.751 53.309 113.556C53.3972 113.459 53.5055 113.382 53.6263 113.33C53.7471 113.278 53.8776 113.253 54.009 113.256H55.956C56.0896 113.256 56.2219 113.282 56.3453 113.333C56.4688 113.384 56.5809 113.459 56.6753 113.553C56.7698 113.647 56.8446 113.76 56.8955 113.883C56.9464 114.006 56.9724 114.139 56.972 114.272V116.134C57.5128 115.197 58.3242 114.444 59.3 113.975C60.43 113.466 61.661 113.219 62.9 113.255H64.551C64.6801 113.251 64.8087 113.273 64.9289 113.32C65.049 113.368 65.1581 113.439 65.2494 113.531C65.3406 113.622 65.4121 113.731 65.4594 113.851C65.5066 113.972 65.5286 114.1 65.524 114.229V115.964C65.5294 116.09 65.5077 116.216 65.4602 116.333C65.4128 116.45 65.3407 116.555 65.249 116.641C65.0576 116.814 64.8065 116.905 64.549 116.895H62.009C61.3497 116.859 60.6898 116.958 60.0705 117.188C59.4512 117.417 58.8857 117.771 58.409 118.228C57.959 118.713 57.611 119.283 57.3856 119.905C57.1602 120.526 57.0621 121.187 57.097 121.847V134.29C57.1004 134.422 57.0753 134.552 57.0235 134.673C56.9717 134.794 56.8945 134.902 56.797 134.99C56.6022 135.173 56.3438 135.271 56.077 135.265L54.007 135.269Z" fill="white"/>
<path d="M77.708 135.69C75.8397 135.756 73.9867 135.333 72.332 134.463C70.9222 133.675 69.7747 132.491 69.032 131.056C68.2444 129.513 67.8093 127.814 67.758 126.082C67.7293 125.603 67.715 124.989 67.715 124.241C67.715 123.493 67.7293 122.893 67.758 122.441C67.8031 120.7 68.2442 118.992 69.048 117.447C69.8086 116.024 70.962 114.849 72.371 114.061C74.0327 113.254 75.8563 112.834 77.704 112.834C79.5516 112.834 81.3752 113.254 83.037 114.061C84.4454 114.849 85.5983 116.024 86.359 117.447C87.1657 118.992 87.61 120.7 87.658 122.442C87.6853 122.894 87.6993 123.494 87.7 124.242C87.7006 124.99 87.6866 125.604 87.658 126.082C87.6068 127.813 87.1731 129.512 86.388 131.055C85.645 132.489 84.4976 133.674 83.088 134.462C81.4336 135.332 79.5809 135.755 77.713 135.689M77.713 132.43C78.4901 132.466 79.266 132.335 79.9885 132.047C80.7111 131.758 81.3638 131.319 81.903 130.758C83.0412 129.388 83.6432 127.651 83.597 125.87C83.6236 125.447 83.6376 124.911 83.639 124.262C83.6403 123.614 83.6263 123.078 83.597 122.654C83.6431 120.873 83.0411 119.136 81.903 117.765C81.3637 117.205 80.711 116.765 79.9884 116.477C79.2659 116.189 78.4901 116.058 77.713 116.093C76.9328 116.059 76.1543 116.191 75.4286 116.479C74.7028 116.767 74.0462 117.205 73.502 117.765C72.353 119.129 71.7565 120.873 71.83 122.654C71.8013 123.077 71.7873 123.613 71.788 124.262C71.7886 124.912 71.8026 125.448 71.83 125.87C71.7564 127.651 72.3529 129.395 73.502 130.758C74.0461 131.318 74.7027 131.757 75.4285 132.045C76.1542 132.333 76.9328 132.465 77.713 132.43Z" fill="white"/>
<path d="M94 135.267C93.8708 135.272 93.7422 135.25 93.622 135.202C93.5018 135.155 93.3926 135.083 93.3013 134.992C93.2099 134.901 93.1384 134.791 93.091 134.671C93.0436 134.551 93.0215 134.422 93.026 134.293V106.193C93.0215 106.064 93.0436 105.936 93.091 105.815C93.1384 105.695 93.2099 105.586 93.3013 105.495C93.3926 105.403 93.5018 105.332 93.622 105.284C93.7422 105.237 93.8708 105.215 94 105.219H95.989C96.1181 105.215 96.2467 105.237 96.3669 105.284C96.4871 105.332 96.5963 105.403 96.6876 105.495C96.779 105.586 96.8505 105.695 96.8979 105.815C96.9453 105.936 96.9674 106.064 96.963 106.193V120.919L105.301 113.978C105.544 113.765 105.806 113.573 106.084 113.407C106.372 113.289 106.683 113.238 106.993 113.258H109.236C109.353 113.256 109.47 113.277 109.579 113.321C109.688 113.364 109.787 113.43 109.87 113.513C109.953 113.596 110.019 113.695 110.063 113.804C110.106 113.913 110.128 114.03 110.125 114.147C110.119 114.281 110.083 114.411 110.019 114.528C109.921 114.699 109.784 114.845 109.619 114.952L99.8419 123.078L110.677 133.617C111.016 133.9 111.185 134.154 111.185 134.38C111.188 134.498 111.167 134.615 111.123 134.724C111.079 134.833 111.014 134.932 110.931 135.015C110.848 135.098 110.749 135.164 110.64 135.208C110.53 135.251 110.413 135.272 110.296 135.269H108.096C107.779 135.288 107.461 135.238 107.165 135.121C106.888 134.964 106.632 134.772 106.403 134.55L96.9649 125.535V134.296C96.9694 134.425 96.9473 134.554 96.8999 134.674C96.8525 134.794 96.781 134.904 96.6896 134.995C96.5983 135.086 96.4891 135.158 96.3689 135.205C96.2487 135.253 96.1201 135.275 95.991 135.27L94 135.267Z" fill="white"/>
<path d="M122.614 135.69C121.327 135.755 120.041 135.549 118.838 135.086C117.635 134.623 116.543 133.914 115.631 133.003C113.818 130.985 112.809 128.372 112.795 125.659C112.766 125.293 112.752 124.82 112.753 124.241C112.754 123.663 112.768 123.19 112.795 122.824C112.864 120.985 113.342 119.185 114.195 117.554C114.963 116.096 116.128 114.885 117.556 114.061C119.09 113.216 120.821 112.792 122.572 112.834C124.464 112.768 126.335 113.238 127.972 114.189C129.441 115.11 130.598 116.452 131.294 118.04C132.092 119.882 132.482 121.875 132.437 123.881V124.601C132.445 124.734 132.425 124.867 132.377 124.991C132.329 125.115 132.256 125.228 132.161 125.321C131.97 125.494 131.718 125.585 131.461 125.575H116.816V125.956C116.862 127.074 117.121 128.173 117.577 129.194C118.004 130.167 118.684 131.007 119.546 131.628C120.428 132.256 121.489 132.583 122.572 132.559C123.442 132.588 124.308 132.429 125.112 132.094C125.711 131.833 126.267 131.484 126.762 131.057C127.082 130.791 127.366 130.485 127.609 130.147C127.764 129.906 127.965 129.698 128.201 129.534C128.416 129.451 128.647 129.414 128.878 129.428H130.956C131.196 129.424 131.429 129.506 131.612 129.661C131.704 129.742 131.773 129.844 131.814 129.959C131.855 130.074 131.865 130.197 131.845 130.317C131.758 130.883 131.525 131.415 131.168 131.862C130.664 132.551 130.057 133.158 129.368 133.662C128.496 134.304 127.523 134.798 126.49 135.122C125.238 135.52 123.93 135.712 122.617 135.693M116.817 122.657H128.417V122.53C128.438 121.364 128.199 120.207 127.717 119.144C127.279 118.189 126.582 117.376 125.706 116.796C124.772 116.201 123.681 115.898 122.574 115.928C121.473 115.896 120.388 116.199 119.463 116.796C118.599 117.378 117.916 118.192 117.495 119.144C117.027 120.211 116.796 121.366 116.818 122.53L116.817 122.657Z" fill="white"/>
<path d="M138.488 135.269C138.359 135.274 138.23 135.252 138.11 135.204C137.99 135.157 137.881 135.085 137.789 134.994C137.698 134.903 137.626 134.793 137.579 134.673C137.532 134.553 137.51 134.424 137.514 134.295V114.275C137.508 114.009 137.607 113.751 137.79 113.556C137.878 113.459 137.986 113.382 138.107 113.33C138.228 113.278 138.359 113.253 138.49 113.256H140.437C140.571 113.256 140.703 113.282 140.826 113.333C140.95 113.383 141.062 113.458 141.157 113.553C141.251 113.647 141.326 113.759 141.377 113.883C141.428 114.006 141.454 114.139 141.453 114.272V116.134C141.994 115.197 142.805 114.444 143.781 113.975C144.911 113.466 146.142 113.22 147.381 113.255H149.032C149.161 113.251 149.29 113.273 149.41 113.321C149.53 113.368 149.639 113.44 149.73 113.531C149.821 113.622 149.893 113.731 149.94 113.852C149.987 113.972 150.009 114.1 150.005 114.229V115.964C150.011 116.09 149.989 116.216 149.941 116.333C149.894 116.45 149.822 116.555 149.73 116.641C149.539 116.814 149.288 116.905 149.03 116.895H146.49C145.831 116.859 145.171 116.958 144.551 117.188C143.932 117.417 143.367 117.771 142.89 118.228C142.44 118.713 142.092 119.283 141.867 119.905C141.641 120.526 141.543 121.187 141.578 121.847V134.29C141.581 134.422 141.556 134.552 141.504 134.673C141.453 134.794 141.375 134.902 141.278 134.99C141.083 135.173 140.825 135.271 140.558 135.265L138.488 135.269Z" fill="white"/>
</g>
<defs>
<clipPath id="clip0_2568_20597">
<rect width="151" height="36" fill="white" transform="translate(0 102.452)"/>
</clipPath>
</defs>
</svg>
